<svg width="50" height="51" viewBox="0 0 50 51" fill="none" xmlns="http://www.w3.org/2000/svg">
<path fill-rule="evenodd" clip-rule="evenodd" d="M16.1748 5.55634H20.837C21.6033 5.55634 22.2246 6.17816 22.2246 6.94523V9.723C22.2246 10.4901 21.6033 11.1119 20.837 11.1119H16.1748C14.8232 14.9384 10.914 17.2338 6.9176 16.5474C2.9212 15.8611 0 12.3928 0 8.33412C0 4.27548 2.9212 0.807117 6.9176 0.120793C10.914 -0.56553 14.8232 1.72982 16.1748 5.55634ZM5.57446 8.33405C5.57446 9.86818 6.81694 11.1118 8.34961 11.1118C9.88228 11.1118 11.1248 9.86818 11.1248 8.33405C11.1248 6.79993 9.88228 5.55627 8.34961 5.55627C6.81694 5.55627 5.57446 6.79993 5.57446 8.33405ZM7.43344 22.8621C4.26874 23.9806 1.7795 26.4722 0.662076 29.6399C0.567719 29.8326 0.567719 30.0582 0.662076 30.251C0.795945 30.4407 1.01281 30.5544 1.24486 30.5565H5.57409C6.00432 30.5614 6.40926 30.3535 6.6564 30.001C6.98358 29.5901 7.35595 29.2173 7.76646 28.8899C8.13748 28.6433 8.35721 28.2244 8.34924 27.7787V23.5287C8.34712 23.2965 8.23352 23.0794 8.04397 22.9454C7.86462 22.8237 7.63879 22.7929 7.43344 22.8621ZM5.57506 36.1118C6.03124 36.1158 6.45219 36.3581 6.68512 36.7507V36.6674C7.0107 37.088 7.38312 37.4701 7.79518 37.8063C8.14738 38.0536 8.35504 38.459 8.35021 38.8896V43.1396C8.39649 43.3853 8.31251 43.6375 8.1282 43.8063C7.93563 43.9007 7.71024 43.9007 7.51767 43.8063C4.35297 42.6878 1.86373 40.1962 0.746305 37.0285C0.651948 36.8357 0.651948 36.6101 0.746305 36.4174C0.880174 36.2276 1.09704 36.1139 1.32909 36.1118H5.57506ZM20.8375 38.9729H15.2872C14.5209 38.9729 13.8997 39.5947 13.8997 40.3618V43.1395C13.8997 43.9066 14.5209 44.5284 15.2872 44.5284H20.8375C21.6039 44.5284 22.2251 43.9066 22.2251 43.1395V40.3618C22.2481 39.9792 22.1121 39.6041 21.8493 39.3253C21.5866 39.0466 21.2204 38.8888 20.8375 38.8895V38.9729ZM15.2872 22.3062H20.8375V22.2229C21.2204 22.2222 21.5866 22.3799 21.8493 22.6587C22.1121 22.9375 22.2481 23.3126 22.2251 23.6951V26.4729C22.2251 27.24 21.6039 27.8618 20.8375 27.8618H15.2872C14.5209 27.8618 13.8997 27.24 13.8997 26.4729V23.6951C13.8997 22.9281 14.5209 22.3062 15.2872 22.3062ZM29.1627 11.1952H34.713C35.4794 11.1952 36.1006 10.5734 36.1006 9.80631V7.02854C36.1006 6.26148 35.4794 5.63965 34.713 5.63965H29.1627C28.3964 5.63965 27.7751 6.26148 27.7751 7.02854V9.80631C27.8192 10.5407 28.4278 11.1132 29.1627 11.1119V11.1952ZM34.713 27.8618H29.1627V27.7785C28.4278 27.7798 27.8192 27.2073 27.7751 26.4729V23.6952C27.7751 22.9281 28.3964 22.3063 29.1627 22.3063H34.713C35.4794 22.3063 36.1006 22.9281 36.1006 23.6952V26.4729C36.1006 27.24 35.4794 27.8618 34.713 27.8618ZM42.5662 27.2231C45.7309 26.1046 48.2201 23.613 49.3376 20.4453C49.4319 20.2526 49.4319 20.027 49.3376 19.8342C49.2037 19.6445 48.9868 19.5308 48.7548 19.5286H44.4255C43.9953 19.5238 43.5904 19.7317 43.3432 20.0842C43.016 20.4951 42.6437 20.8678 42.2332 21.1953C41.8863 21.4253 41.6698 21.8071 41.6504 22.2231V26.5009C41.6525 26.7331 41.7661 26.9502 41.9557 27.0842C42.1395 27.1966 42.3651 27.2171 42.5662 27.1398V27.2231ZM44.4269 13.8898C43.987 13.904 43.5695 13.6951 43.3169 13.3342C42.974 12.9105 42.5828 12.5282 42.1513 12.1953C41.7991 11.948 41.5914 11.5427 41.5963 11.112V6.77868C41.5984 6.54641 41.712 6.32934 41.9015 6.19535C42.0941 6.1009 42.3195 6.1009 42.5121 6.19535C45.6768 7.31383 48.166 9.80543 49.2834 12.9731C49.3778 13.1659 49.3778 13.3915 49.2834 13.5842C49.1496 13.774 48.9327 13.8877 48.7007 13.8898H44.4269ZM41.6509 33.334C38.1313 33.3439 34.9982 35.5681 33.825 38.8896H29.1627C28.3964 38.8896 27.7751 39.5114 27.7751 40.2785V43.0562C27.7751 43.8233 28.3964 44.4451 29.1627 44.4451H33.825C35.2373 48.4435 39.4243 50.7424 43.552 49.7859C47.6797 48.8295 50.4314 44.9226 49.9446 40.7098C49.4578 36.4971 45.8877 33.3221 41.6509 33.334ZM38.8752 41.6673C38.8752 43.2014 40.1177 44.4451 41.6504 44.4451C43.1831 44.4451 44.4255 43.2014 44.4255 41.6673C44.4255 40.1332 43.1831 38.8895 41.6504 38.8895C40.1177 38.8895 38.8752 40.1332 38.8752 41.6673Z" fill="#E06565"/>
<path fill-rule="evenodd" clip-rule="evenodd" d="M16.1748 5.55634H20.837C21.6033 5.55634 22.2246 6.17816 22.2246 6.94523V9.723C22.2246 10.4901 21.6033 11.1119 20.837 11.1119H16.1748C14.8232 14.9384 10.914 17.2338 6.9176 16.5474C2.9212 15.8611 0 12.3928 0 8.33412C0 4.27548 2.9212 0.807117 6.9176 0.120793C10.914 -0.56553 14.8232 1.72982 16.1748 5.55634ZM5.57446 8.33405C5.57446 9.86818 6.81694 11.1118 8.34961 11.1118C9.88228 11.1118 11.1248 9.86818 11.1248 8.33405C11.1248 6.79993 9.88228 5.55627 8.34961 5.55627C6.81694 5.55627 5.57446 6.79993 5.57446 8.33405ZM7.43344 22.8621C4.26874 23.9806 1.7795 26.4722 0.662076 29.6399C0.567719 29.8326 0.567719 30.0582 0.662076 30.251C0.795945 30.4407 1.01281 30.5544 1.24486 30.5565H5.57409C6.00432 30.5614 6.40926 30.3535 6.6564 30.001C6.98358 29.5901 7.35595 29.2173 7.76646 28.8899C8.13748 28.6433 8.35721 28.2244 8.34924 27.7787V23.5287C8.34712 23.2965 8.23352 23.0794 8.04397 22.9454C7.86462 22.8237 7.63879 22.7929 7.43344 22.8621ZM5.57506 36.1118C6.03124 36.1158 6.45219 36.3581 6.68512 36.7507V36.6674C7.0107 37.088 7.38312 37.4701 7.79518 37.8063C8.14738 38.0536 8.35504 38.459 8.35021 38.8896V43.1396C8.39649 43.3853 8.31251 43.6375 8.1282 43.8063C7.93563 43.9007 7.71024 43.9007 7.51767 43.8063C4.35297 42.6878 1.86373 40.1962 0.746305 37.0285C0.651948 36.8357 0.651948 36.6101 0.746305 36.4174C0.880174 36.2276 1.09704 36.1139 1.32909 36.1118H5.57506ZM20.8375 38.9729H15.2872C14.5209 38.9729 13.8997 39.5947 13.8997 40.3618V43.1395C13.8997 43.9066 14.5209 44.5284 15.2872 44.5284H20.8375C21.6039 44.5284 22.2251 43.9066 22.2251 43.1395V40.3618C22.2481 39.9792 22.1121 39.6041 21.8493 39.3253C21.5866 39.0466 21.2204 38.8888 20.8375 38.8895V38.9729ZM15.2872 22.3062H20.8375V22.2229C21.2204 22.2222 21.5866 22.3799 21.8493 22.6587C22.1121 22.9375 22.2481 23.3126 22.2251 23.6951V26.4729C22.2251 27.24 21.6039 27.8618 20.8375 27.8618H15.2872C14.5209 27.8618 13.8997 27.24 13.8997 26.4729V23.6951C13.8997 22.9281 14.5209 22.3062 15.2872 22.3062ZM29.1627 11.1952H34.713C35.4794 11.1952 36.1006 10.5734 36.1006 9.80631V7.02854C36.1006 6.26148 35.4794 5.63965 34.713 5.63965H29.1627C28.3964 5.63965 27.7751 6.26148 27.7751 7.02854V9.80631C27.8192 10.5407 28.4278 11.1132 29.1627 11.1119V11.1952ZM34.713 27.8618H29.1627V27.7785C28.4278 27.7798 27.8192 27.2073 27.7751 26.4729V23.6952C27.7751 22.9281 28.3964 22.3063 29.1627 22.3063H34.713C35.4794 22.3063 36.1006 22.9281 36.1006 23.6952V26.4729C36.1006 27.24 35.4794 27.8618 34.713 27.8618ZM42.5662 27.2231C45.7309 26.1046 48.2201 23.613 49.3376 20.4453C49.4319 20.2526 49.4319 20.027 49.3376 19.8342C49.2037 19.6445 48.9868 19.5308 48.7548 19.5286H44.4255C43.9953 19.5238 43.5904 19.7317 43.3432 20.0842C43.016 20.4951 42.6437 20.8678 42.2332 21.1953C41.8863 21.4253 41.6698 21.8071 41.6504 22.2231V26.5009C41.6525 26.7331 41.7661 26.9502 41.9557 27.0842C42.1395 27.1966 42.3651 27.2171 42.5662 27.1398V27.2231ZM44.4269 13.8898C43.987 13.904 43.5695 13.6951 43.3169 13.3342C42.974 12.9105 42.5828 12.5282 42.1513 12.1953C41.7991 11.948 41.5914 11.5427 41.5963 11.112V6.77868C41.5984 6.54641 41.712 6.32934 41.9015 6.19535C42.0941 6.1009 42.3195 6.1009 42.5121 6.19535C45.6768 7.31383 48.166 9.80543 49.2834 12.9731C49.3778 13.1659 49.3778 13.3915 49.2834 13.5842C49.1496 13.774 48.9327 13.8877 48.7007 13.8898H44.4269ZM41.6509 33.334C38.1313 33.3439 34.9982 35.5681 33.825 38.8896H29.1627C28.3964 38.8896 27.7751 39.5114 27.7751 40.2785V43.0562C27.7751 43.8233 28.3964 44.4451 29.1627 44.4451H33.825C35.2373 48.4435 39.4243 50.7424 43.552 49.7859C47.6797 48.8295 50.4314 44.9226 49.9446 40.7098C49.4578 36.4971 45.8877 33.3221 41.6509 33.334ZM38.8752 41.6673C38.8752 43.2014 40.1177 44.4451 41.6504 44.4451C43.1831 44.4451 44.4255 43.2014 44.4255 41.6673C44.4255 40.1332 43.1831 38.8895 41.6504 38.8895C40.1177 38.8895 38.8752 40.1332 38.8752 41.6673Z" fill="url(#paint0_linear)"/>
<defs>
<linearGradient id="paint0_linear" x1="12.7194" y1="6.14059" x2="35.5277" y2="50.0013" gradientUnits="userSpaceOnUse">
<stop stop-color="#E06565"/>
<stop offset="1" stop-color="#A52323"/>
</linearGradient>
</defs>
</svg>
