<svg width="947" height="495" viewBox="0 0 947 495" fill="none" xmlns="http://www.w3.org/2000/svg">
<circle cx="9.78178" cy="9.78178" r="9.28178" fill="#FFEFEF" stroke="white"/>
<circle cx="389.874" cy="9.78178" r="9.28178" fill="#FFEFEF" stroke="white"/>
<circle cx="769.965" cy="9.78178" r="9.28178" fill="#FFEFEF" stroke="white"/>
<circle cx="199.828" cy="9.78178" r="9.28178" fill="#FFEFEF" stroke="white"/>
<circle cx="579.919" cy="9.78178" r="9.28178" fill="#FFEFEF" stroke="white"/>
<circle cx="57.2933" cy="9.78178" r="9.28178" fill="#FFEFEF" stroke="white"/>
<circle cx="437.385" cy="9.78178" r="9.28178" fill="#FFEFEF" stroke="white"/>
<circle cx="817.477" cy="9.78178" r="9.28178" fill="#FFEFEF" stroke="white"/>
<circle cx="247.339" cy="9.78178" r="9.28178" fill="#FFEFEF" stroke="white"/>
<circle cx="627.431" cy="9.78178" r="9.28178" fill="#FFEFEF" stroke="white"/>
<circle cx="104.805" cy="9.78178" r="9.28178" fill="#FFEFEF" stroke="white"/>
<circle cx="484.897" cy="9.78178" r="9.28178" fill="#FFEFEF" stroke="white"/>
<circle cx="864.988" cy="9.78178" r="9.28178" fill="#FFEFEF" stroke="white"/>
<circle cx="294.851" cy="9.78178" r="9.28178" fill="#FFEFEF" stroke="white"/>
<circle cx="674.942" cy="9.78178" r="9.28178" fill="#FFEFEF" stroke="white"/>
<circle cx="152.316" cy="9.78178" r="9.28178" fill="#FFEFEF" stroke="white"/>
<circle cx="532.408" cy="9.78178" r="9.28178" fill="#FFEFEF" stroke="white"/>
<circle cx="912.5" cy="9.78178" r="9.28178" fill="#FFEFEF" stroke="white"/>
<circle cx="342.362" cy="9.78178" r="9.28178" fill="#FFEFEF" stroke="white"/>
<circle cx="722.454" cy="9.78178" r="9.28178" fill="#FFEFEF" stroke="white"/>
<circle cx="9.78178" cy="57.2933" r="9.28178" fill="#FFEFEF" stroke="white"/>
<circle cx="389.874" cy="57.2933" r="9.28178" fill="#FFEFEF" stroke="white"/>
<circle cx="769.965" cy="57.2933" r="9.28178" fill="#FFEFEF" stroke="white"/>
<circle cx="199.828" cy="57.2933" r="9.28178" fill="#FFEFEF" stroke="white"/>
<circle cx="579.919" cy="57.2933" r="9.28178" fill="#FFEFEF" stroke="white"/>
<circle cx="57.2933" cy="57.2933" r="9.28178" fill="#FFEFEF" stroke="white"/>
<circle cx="437.385" cy="57.2933" r="9.28178" fill="#FFEFEF" stroke="white"/>
<circle cx="817.477" cy="57.2933" r="9.28178" fill="#FFEFEF" stroke="white"/>
<circle cx="247.339" cy="57.2933" r="9.28178" fill="#FFEFEF" stroke="white"/>
<circle cx="627.431" cy="57.2933" r="9.28178" fill="#FFEFEF" stroke="white"/>
<circle cx="104.805" cy="57.2933" r="9.28178" fill="#FFEFEF" stroke="white"/>
<circle cx="484.897" cy="57.2933" r="9.28178" fill="#FFEFEF" stroke="white"/>
<circle cx="864.988" cy="57.2933" r="9.28178" fill="#FFEFEF" stroke="white"/>
<circle cx="294.851" cy="57.2933" r="9.28178" fill="#FFEFEF" stroke="white"/>
<circle cx="674.942" cy="57.2933" r="9.28178" fill="#FFEFEF" stroke="white"/>
<circle cx="152.316" cy="57.2933" r="9.28178" fill="#FFEFEF" stroke="white"/>
<circle cx="532.408" cy="57.2933" r="9.28178" fill="#FFEFEF" stroke="white"/>
<circle cx="912.5" cy="57.2933" r="9.28178" fill="#FFEFEF" stroke="white"/>
<circle cx="342.362" cy="57.2933" r="9.28178" fill="#FFEFEF" stroke="white"/>
<circle cx="722.454" cy="57.2933" r="9.28178" fill="#FFEFEF" stroke="white"/>
<circle cx="9.78178" cy="104.805" r="9.28178" fill="#FFEFEF" stroke="white"/>
<circle cx="389.874" cy="104.805" r="9.28178" fill="#FFEFEF" stroke="white"/>
<circle cx="769.965" cy="104.805" r="9.28178" fill="#FFEFEF" stroke="white"/>
<circle cx="199.828" cy="104.805" r="9.28178" fill="#FFEFEF" stroke="white"/>
<circle cx="579.919" cy="104.805" r="9.28178" fill="#FFEFEF" stroke="white"/>
<circle cx="57.2933" cy="104.805" r="9.28178" fill="#FFEFEF" stroke="white"/>
<circle cx="437.385" cy="104.805" r="9.28178" fill="#FFEFEF" stroke="white"/>
<circle cx="817.477" cy="104.805" r="9.28178" fill="#FFEFEF" stroke="white"/>
<circle cx="247.339" cy="104.805" r="9.28178" fill="#FFEFEF" stroke="white"/>
<circle cx="627.431" cy="104.805" r="9.28178" fill="#FFEFEF" stroke="white"/>
<circle cx="104.805" cy="104.805" r="9.28178" fill="#FFEFEF" stroke="white"/>
<circle cx="484.897" cy="104.805" r="9.28178" fill="#FFEFEF" stroke="white"/>
<circle cx="864.988" cy="104.805" r="9.28178" fill="#FFEFEF" stroke="white"/>
<circle cx="294.851" cy="104.805" r="9.28178" fill="#FFEFEF" stroke="white"/>
<circle cx="674.942" cy="104.805" r="9.28178" fill="#FFEFEF" stroke="white"/>
<circle cx="152.316" cy="104.805" r="9.28178" fill="#FFEFEF" stroke="white"/>
<circle cx="532.408" cy="104.805" r="9.28178" fill="#FFEFEF" stroke="white"/>
<circle cx="912.5" cy="104.805" r="9.28178" fill="#FFEFEF" stroke="white"/>
<circle cx="342.362" cy="104.805" r="9.28178" fill="#FFEFEF" stroke="white"/>
<circle cx="722.454" cy="104.805" r="9.28178" fill="#FFEFEF" stroke="white"/>
<circle cx="9.78178" cy="152.316" r="9.28178" fill="#FFEFEF" stroke="white"/>
<circle cx="389.874" cy="152.316" r="9.28178" fill="#FFEFEF" stroke="white"/>
<circle cx="769.965" cy="152.316" r="9.28178" fill="#FFEFEF" stroke="white"/>
<circle cx="199.828" cy="152.316" r="9.28178" fill="#FFEFEF" stroke="white"/>
<circle cx="579.919" cy="152.316" r="9.28178" fill="#FFEFEF" stroke="white"/>
<circle cx="57.2933" cy="152.316" r="9.28178" fill="#FFEFEF" stroke="white"/>
<circle cx="437.385" cy="152.316" r="9.28178" fill="#FFEFEF" stroke="white"/>
<circle cx="817.477" cy="152.316" r="9.28178" fill="#FFEFEF" stroke="white"/>
<circle cx="247.339" cy="152.316" r="9.28178" fill="#FFEFEF" stroke="white"/>
<circle cx="627.431" cy="152.316" r="9.28178" fill="#FFEFEF" stroke="white"/>
<circle cx="104.805" cy="152.316" r="9.28178" fill="#FFEFEF" stroke="white"/>
<circle cx="484.897" cy="152.316" r="9.28178" fill="#FFEFEF" stroke="white"/>
<circle cx="864.988" cy="152.316" r="9.28178" fill="#FFEFEF" stroke="white"/>
<circle cx="294.851" cy="152.316" r="9.28178" fill="#FFEFEF" stroke="white"/>
<circle cx="674.942" cy="152.316" r="9.28178" fill="#FFEFEF" stroke="white"/>
<circle cx="152.316" cy="152.316" r="9.28178" fill="#FFEFEF" stroke="white"/>
<circle cx="532.408" cy="152.316" r="9.28178" fill="#FFEFEF" stroke="white"/>
<circle cx="912.5" cy="152.316" r="9.28178" fill="#FFEFEF" stroke="white"/>
<circle cx="342.362" cy="152.316" r="9.28178" fill="#FFEFEF" stroke="white"/>
<circle cx="722.454" cy="152.316" r="9.28178" fill="#FFEFEF" stroke="white"/>
<circle cx="9.78178" cy="199.828" r="9.28178" fill="#FFEFEF" stroke="white"/>
<circle cx="389.874" cy="199.828" r="9.28178" fill="#FFEFEF" stroke="white"/>
<circle cx="769.965" cy="199.828" r="9.28178" fill="#FFEFEF" stroke="white"/>
<circle cx="199.828" cy="199.828" r="9.28178" fill="#FFEFEF" stroke="white"/>
<circle cx="579.919" cy="199.828" r="9.28178" fill="#FFEFEF" stroke="white"/>
<circle cx="57.2933" cy="199.828" r="9.28178" fill="#FFEFEF" stroke="white"/>
<circle cx="437.385" cy="199.828" r="9.28178" fill="#FFEFEF" stroke="white"/>
<circle cx="817.477" cy="199.828" r="9.28178" fill="#FFEFEF" stroke="white"/>
<circle cx="247.339" cy="199.828" r="9.28178" fill="#FFEFEF" stroke="white"/>
<circle cx="627.431" cy="199.828" r="9.28178" fill="#FFEFEF" stroke="white"/>
<circle cx="104.805" cy="199.828" r="9.28178" fill="#FFEFEF" stroke="white"/>
<circle cx="484.897" cy="199.828" r="9.28178" fill="#FFEFEF" stroke="white"/>
<circle cx="864.988" cy="199.828" r="9.28178" fill="#FFEFEF" stroke="white"/>
<circle cx="294.851" cy="199.828" r="9.28178" fill="#FFEFEF" stroke="white"/>
<circle cx="674.942" cy="199.828" r="9.28178" fill="#FFEFEF" stroke="white"/>
<circle cx="152.316" cy="199.828" r="9.28178" fill="#FFEFEF" stroke="white"/>
<circle cx="532.408" cy="199.828" r="9.28178" fill="#FFEFEF" stroke="white"/>
<circle cx="912.5" cy="199.828" r="9.28178" fill="#FFEFEF" stroke="white"/>
<circle cx="342.362" cy="199.828" r="9.28178" fill="#FFEFEF" stroke="white"/>
<circle cx="722.454" cy="199.828" r="9.28178" fill="#FFEFEF" stroke="white"/>
<circle cx="9.78178" cy="247.339" r="9.28178" fill="#FFEFEF" stroke="white"/>
<circle cx="9.78178" cy="389.874" r="9.28178" fill="#FFEFEF" stroke="white"/>
<circle cx="389.874" cy="247.339" r="9.28178" fill="#FFEFEF" stroke="white"/>
<circle cx="389.874" cy="389.874" r="9.28178" fill="#FFEFEF" stroke="white"/>
<circle cx="769.965" cy="247.339" r="9.28178" fill="#FFEFEF" stroke="white"/>
<circle cx="769.965" cy="389.874" r="9.28178" fill="#FFEFEF" stroke="white"/>
<circle cx="199.828" cy="247.339" r="9.28178" fill="#FFEFEF" stroke="white"/>
<circle cx="199.828" cy="389.874" r="9.28178" fill="#FFEFEF" stroke="white"/>
<circle cx="579.919" cy="247.339" r="9.28178" fill="#FFEFEF" stroke="white"/>
<circle cx="579.919" cy="389.874" r="9.28178" fill="#FFEFEF" stroke="white"/>
<circle cx="57.2933" cy="247.339" r="9.28178" fill="#FFEFEF" stroke="white"/>
<circle cx="57.2933" cy="389.874" r="9.28178" fill="#FFEFEF" stroke="white"/>
<circle cx="437.385" cy="247.339" r="9.28178" fill="#FFEFEF" stroke="white"/>
<circle cx="437.385" cy="389.874" r="9.28178" fill="#FFEFEF" stroke="white"/>
<circle cx="817.477" cy="247.339" r="9.28178" fill="#FFEFEF" stroke="white"/>
<circle cx="817.477" cy="389.874" r="9.28178" fill="#FFEFEF" stroke="white"/>
<circle cx="247.339" cy="247.339" r="9.28178" fill="#FFEFEF" stroke="white"/>
<circle cx="247.339" cy="389.874" r="9.28178" fill="#FFEFEF" stroke="white"/>
<circle cx="627.431" cy="247.339" r="9.28178" fill="#FFEFEF" stroke="white"/>
<circle cx="627.431" cy="389.874" r="9.28178" fill="#FFEFEF" stroke="white"/>
<circle cx="104.805" cy="247.339" r="9.28178" fill="#FFEFEF" stroke="white"/>
<circle cx="104.805" cy="389.874" r="9.28178" fill="#FFEFEF" stroke="white"/>
<circle cx="484.897" cy="247.339" r="9.28178" fill="#FFEFEF" stroke="white"/>
<circle cx="484.897" cy="389.874" r="9.28178" fill="#FFEFEF" stroke="white"/>
<circle cx="864.988" cy="247.339" r="9.28178" fill="#FFEFEF" stroke="white"/>
<circle cx="864.988" cy="389.874" r="9.28178" fill="#FFEFEF" stroke="white"/>
<circle cx="294.851" cy="247.339" r="9.28178" fill="#FFEFEF" stroke="white"/>
<circle cx="294.851" cy="389.874" r="9.28178" fill="#FFEFEF" stroke="white"/>
<circle cx="674.942" cy="247.339" r="9.28178" fill="#FFEFEF" stroke="white"/>
<circle cx="674.942" cy="389.874" r="9.28178" fill="#FFEFEF" stroke="white"/>
<circle cx="152.316" cy="247.339" r="9.28178" fill="#FFEFEF" stroke="white"/>
<circle cx="152.316" cy="389.874" r="9.28178" fill="#FFEFEF" stroke="white"/>
<circle cx="532.408" cy="247.339" r="9.28178" fill="#FFEFEF" stroke="white"/>
<circle cx="532.408" cy="389.874" r="9.28178" fill="#FFEFEF" stroke="white"/>
<circle cx="912.5" cy="247.339" r="9.28178" fill="#FFEFEF" stroke="white"/>
<circle cx="912.5" cy="389.874" r="9.28178" fill="#FFEFEF" stroke="white"/>
<circle cx="342.362" cy="247.339" r="9.28178" fill="#FFEFEF" stroke="white"/>
<circle cx="342.362" cy="389.874" r="9.28178" fill="#FFEFEF" stroke="white"/>
<circle cx="722.454" cy="247.339" r="9.28178" fill="#FFEFEF" stroke="white"/>
<circle cx="722.454" cy="389.874" r="9.28178" fill="#FFEFEF" stroke="white"/>
<circle cx="9.78178" cy="294.851" r="9.28178" fill="#FFEFEF" stroke="white"/>
<circle cx="9.78178" cy="437.385" r="9.28178" fill="#FFEFEF" stroke="white"/>
<circle cx="389.874" cy="294.851" r="9.28178" fill="#FFEFEF" stroke="white"/>
<circle cx="389.874" cy="437.385" r="9.28178" fill="#FFEFEF" stroke="white"/>
<circle cx="769.965" cy="294.851" r="9.28178" fill="#FFEFEF" stroke="white"/>
<circle cx="769.965" cy="437.385" r="9.28178" fill="#FFEFEF" stroke="white"/>
<circle cx="199.828" cy="294.851" r="9.28178" fill="#FFEFEF" stroke="white"/>
<circle cx="199.828" cy="437.385" r="9.28178" fill="#FFEFEF" stroke="white"/>
<circle cx="579.919" cy="294.851" r="9.28178" fill="#FFEFEF" stroke="white"/>
<circle cx="579.919" cy="437.385" r="9.28178" fill="#FFEFEF" stroke="white"/>
<circle cx="57.2933" cy="294.851" r="9.28178" fill="#FFEFEF" stroke="white"/>
<circle cx="57.2933" cy="437.385" r="9.28178" fill="#FFEFEF" stroke="white"/>
<circle cx="437.385" cy="294.851" r="9.28178" fill="#FFEFEF" stroke="white"/>
<circle cx="437.385" cy="437.385" r="9.28178" fill="#FFEFEF" stroke="white"/>
<circle cx="817.477" cy="294.851" r="9.28178" fill="#FFEFEF" stroke="white"/>
<circle cx="817.477" cy="437.385" r="9.28178" fill="#FFEFEF" stroke="white"/>
<circle cx="247.339" cy="294.851" r="9.28178" fill="#FFEFEF" stroke="white"/>
<circle cx="247.339" cy="437.385" r="9.28178" fill="#FFEFEF" stroke="white"/>
<circle cx="627.431" cy="294.851" r="9.28178" fill="#FFEFEF" stroke="white"/>
<circle cx="627.431" cy="437.385" r="9.28178" fill="#FFEFEF" stroke="white"/>
<circle cx="104.805" cy="294.851" r="9.28178" fill="#FFEFEF" stroke="white"/>
<circle cx="104.805" cy="437.385" r="9.28178" fill="#FFEFEF" stroke="white"/>
<circle cx="484.897" cy="294.851" r="9.28178" fill="#FFEFEF" stroke="white"/>
<circle cx="484.897" cy="437.385" r="9.28178" fill="#FFEFEF" stroke="white"/>
<circle cx="864.988" cy="294.851" r="9.28178" fill="#FFEFEF" stroke="white"/>
<circle cx="864.988" cy="437.385" r="9.28178" fill="#FFEFEF" stroke="white"/>
<circle cx="294.851" cy="294.851" r="9.28178" fill="#FFEFEF" stroke="white"/>
<circle cx="294.851" cy="437.385" r="9.28178" fill="#FFEFEF" stroke="white"/>
<circle cx="674.942" cy="294.851" r="9.28178" fill="#FFEFEF" stroke="white"/>
<circle cx="674.942" cy="437.385" r="9.28178" fill="#FFEFEF" stroke="white"/>
<circle cx="152.316" cy="294.851" r="9.28178" fill="#FFEFEF" stroke="white"/>
<circle cx="152.316" cy="437.385" r="9.28178" fill="#FFEFEF" stroke="white"/>
<circle cx="532.408" cy="294.851" r="9.28178" fill="#FFEFEF" stroke="white"/>
<circle cx="532.408" cy="437.385" r="9.28178" fill="#FFEFEF" stroke="white"/>
<circle cx="912.5" cy="294.851" r="9.28178" fill="#FFEFEF" stroke="white"/>
<circle cx="912.5" cy="437.385" r="9.28178" fill="#FFEFEF" stroke="white"/>
<circle cx="342.362" cy="294.851" r="9.28178" fill="#FFEFEF" stroke="white"/>
<circle cx="342.362" cy="437.385" r="9.28178" fill="#FFEFEF" stroke="white"/>
<circle cx="722.454" cy="294.851" r="9.28178" fill="#FFEFEF" stroke="white"/>
<circle cx="722.454" cy="437.385" r="9.28178" fill="#FFEFEF" stroke="white"/>
<circle cx="9.78178" cy="342.362" r="9.28178" fill="#FFEFEF" stroke="white"/>
<circle cx="9.78178" cy="484.897" r="9.28178" fill="#FFEFEF" stroke="white"/>
<circle cx="389.874" cy="342.362" r="9.28178" fill="#FFEFEF" stroke="white"/>
<circle cx="389.874" cy="484.897" r="9.28178" fill="#FFEFEF" stroke="white"/>
<circle cx="769.965" cy="342.362" r="9.28178" fill="#FFEFEF" stroke="white"/>
<circle cx="769.965" cy="484.897" r="9.28178" fill="#FFEFEF" stroke="white"/>
<circle cx="199.828" cy="342.362" r="9.28178" fill="#FFEFEF" stroke="white"/>
<circle cx="199.828" cy="484.897" r="9.28178" fill="#FFEFEF" stroke="white"/>
<circle cx="579.919" cy="342.362" r="9.28178" fill="#FFEFEF" stroke="white"/>
<circle cx="579.919" cy="484.897" r="9.28178" fill="#FFEFEF" stroke="white"/>
<circle cx="57.2933" cy="342.362" r="9.28178" fill="#FFEFEF" stroke="white"/>
<circle cx="57.2933" cy="484.897" r="9.28178" fill="#FFEFEF" stroke="white"/>
<circle cx="437.385" cy="342.362" r="9.28178" fill="#FFEFEF" stroke="white"/>
<circle cx="437.385" cy="484.897" r="9.28178" fill="#FFEFEF" stroke="white"/>
<circle cx="817.477" cy="342.362" r="9.28178" fill="#FFEFEF" stroke="white"/>
<circle cx="817.477" cy="484.897" r="9.28178" fill="#FFEFEF" stroke="white"/>
<circle cx="247.339" cy="342.362" r="9.28178" fill="#FFEFEF" stroke="white"/>
<circle cx="247.339" cy="484.897" r="9.28178" fill="#FFEFEF" stroke="white"/>
<circle cx="627.431" cy="342.362" r="9.28178" fill="#FFEFEF" stroke="white"/>
<circle cx="627.431" cy="484.897" r="9.28178" fill="#FFEFEF" stroke="white"/>
<circle cx="104.805" cy="342.362" r="9.28178" fill="#FFEFEF" stroke="white"/>
<circle cx="104.805" cy="484.897" r="9.28178" fill="#FFEFEF" stroke="white"/>
<circle cx="484.897" cy="342.362" r="9.28178" fill="#FFEFEF" stroke="white"/>
<circle cx="484.897" cy="484.897" r="9.28178" fill="#FFEFEF" stroke="white"/>
<circle cx="864.988" cy="342.362" r="9.28178" fill="#FFEFEF" stroke="white"/>
<circle cx="864.988" cy="484.897" r="9.28178" fill="#FFEFEF" stroke="white"/>
<circle cx="294.851" cy="342.362" r="9.28178" fill="#FFEFEF" stroke="white"/>
<circle cx="294.851" cy="484.897" r="9.28178" fill="#FFEFEF" stroke="white"/>
<circle cx="674.942" cy="342.362" r="9.28178" fill="#FFEFEF" stroke="white"/>
<circle cx="674.942" cy="484.897" r="9.28178" fill="#FFEFEF" stroke="white"/>
<circle cx="152.316" cy="342.362" r="9.28178" fill="#FFEFEF" stroke="white"/>
<circle cx="152.316" cy="484.897" r="9.28178" fill="#FFEFEF" stroke="white"/>
<circle cx="532.408" cy="342.362" r="9.28178" fill="#FFEFEF" stroke="white"/>
<circle cx="532.408" cy="484.897" r="9.28178" fill="#FFEFEF" stroke="white"/>
<circle cx="912.5" cy="342.362" r="9.28178" fill="#FFEFEF" stroke="white"/>
<circle cx="912.5" cy="484.897" r="9.28178" fill="#FFEFEF" stroke="white"/>
<circle cx="342.362" cy="342.362" r="9.28178" fill="#FFEFEF" stroke="white"/>
<circle cx="342.362" cy="484.897" r="9.28178" fill="#FFEFEF" stroke="white"/>
<circle cx="722.454" cy="342.362" r="9.28178" fill="#FFEFEF" stroke="white"/>
<circle cx="722.454" cy="484.897" r="9.28178" fill="#FFEFEF" stroke="white"/>
</svg>
