<svg width="85" height="53" viewBox="0 0 85 53" fill="none" xmlns="http://www.w3.org/2000/svg">
<path d="M40.4184 47.938C40.3591 51.2555 38.0459 52.2683 35.3027 52.8775C33.1082 53.3692 32.4557 52.3417 33.1378 50.4922C33.8496 48.5472 35.9626 44.22 36.8152 42.3264C37.4454 40.9245 37.4825 42.1031 36.1109 40.4517C35.4065 39.6003 35.9403 38.7269 36.8671 38.426C39.0617 37.7214 38.2309 38.9424 39.0465 37.1736C41.7081 31.3974 45.764 22.5067 48.5072 16.7672C49.0558 15.6149 49.7379 13.802 51.243 14.3158C52.9556 14.903 52.0437 16.6277 51.6137 17.8388C49.649 23.3581 47.5953 28.848 45.6231 34.3673C45.3636 35.0939 44.3924 35.8866 45.334 36.6572C46.1199 37.2957 46.9799 36.7086 47.7361 36.3343C50.7537 34.8297 53.4153 32.8333 55.5432 30.2572C61.5856 22.9544 59.4726 15.2479 50.5312 11.9011C49.041 11.3433 47.4618 10.8736 45.89 10.7121C43.8882 10.5066 40.8262 9.15614 41.8864 13.5452C42.0792 14.3452 41.3674 15.3874 41.0042 16.2901C37.9644 23.7617 34.7467 31.1673 31.9219 38.7123C30.7876 41.7361 28.4595 43.3361 26.176 45.149C25.5755 45.6261 24.923 45.9857 24.1594 45.5307C23.2549 44.9875 23.203 44.1508 23.5514 43.2848C25.7238 37.971 27.2214 32.2021 30.3575 27.5122C32.3668 24.5104 34.7986 22.0296 35.1767 17.4277C31.4326 20.4736 27.7774 22.7342 24.0927 24.936C19.2364 27.8351 14.4618 30.9471 8.79 32.1214C6.02455 32.6939 2.9403 33.5966 1.12385 30.492C-0.722255 27.3361 -0.218098 24.1214 2.08027 21.2736C10.5101 10.8442 21.0529 3.57812 34.3241 0.458838C39.0024 -0.642086 40.2776 0.0331472 41.4638 4.75244C41.8419 6.2497 42.5834 5.59648 43.3322 5.58914C45.1783 5.5818 47.054 5.3763 48.8705 5.6185C62.6088 7.42402 67.6652 16.0406 63.276 30.0296C63.0833 32.2021 61.7858 33.5306 59.9323 34.5214C56.8851 36.1508 53.7341 37.604 50.4423 38.5802C45.4452 40.0627 42.3387 43.3288 40.4184 47.938Z" fill="#E06565"/>
<path d="M78.2592 39.7985C79.1711 38.3159 80.1127 36.8406 80.9876 35.3361C81.5362 34.3966 81.8476 33.237 83.1821 33.1342C83.4564 33.1122 83.753 33.4498 84.0422 33.6186C82.4333 34.5727 85.0431 36.8406 82.8263 37.5526C81.8402 37.8682 81.2174 38.4407 81.4695 39.3728C81.7512 40.415 83.0561 39.5856 83.8123 40.2755C81.9366 42.1398 80.0979 41.6187 78.2295 40.4517C78.0738 40.2976 78.0219 40.1508 78.0812 40.004C78.148 39.8719 78.2073 39.7985 78.2592 39.7985Z" fill="#E06565"/>
<path d="M58.9018 43.3655C59.836 40.8627 61.608 41.7948 63.2836 42.3086C62.898 44.1875 62.5347 46.0664 62.1121 47.938C61.823 49.2297 60.8221 49.1857 60.3105 48.371C59.6581 47.3214 58.976 47.6003 58.1678 47.8058C56.0548 45.9416 58.887 44.8847 58.9018 43.3655Z" fill="#E06565"/>
<path d="M78.2603 39.7985C78.2455 40.0187 78.2381 40.2388 78.2307 40.459C77.163 40.7526 76.1102 41.1122 75.0278 41.3104C74.3605 41.4278 73.367 41.6921 73.1372 40.7673C72.8555 39.6003 73.9453 39.9746 74.5681 39.7765C75.7692 39.3948 75.3614 38.5067 75.1242 37.6847C74.6126 35.9379 75.9397 35.2627 77.126 34.6828C77.8006 34.3526 79.0388 35.1159 78.4308 35.5636C76.3623 37.0829 78.8312 38.448 78.2603 39.7985Z" fill="#E06565"/>
<path d="M65.6104 41.3398C65.0692 40.5325 64.5354 39.6958 63.3566 40.4077C62.7931 40.1875 62.452 39.8499 62.6522 39.1967C65.8996 38.9985 67.2934 35.7471 70.0811 34.7856C71.5269 35.5563 71.5046 36.6572 70.437 37.5967C69.5176 38.404 69.095 39.4242 68.5761 40.4297C67.5826 40.7306 66.5965 41.0389 65.6104 41.3398Z" fill="#E06565"/>
<path d="M68.5696 40.4297C68.1025 39.1673 68.614 38.1472 69.5705 37.4059C70.5788 36.6205 70.8976 35.8499 70.082 34.7857C73.2034 33.9416 72.6918 36.0114 72.4768 37.7655C71.9578 42.1105 71.9355 42.1105 68.5696 40.4297Z" fill="#E06565"/>
<path d="M45.5722 42.7857C47.4628 41.7655 49.6573 39.9747 49.4794 44.2757C49.4497 44.3931 49.4201 44.5105 49.383 44.6279C48.0781 48.3417 48.0781 48.3417 44.8456 47.5197C44.8011 47.3876 44.8085 47.2628 44.8827 47.1454C44.727 46.9692 44.6528 46.7711 44.6528 46.5656C44.6528 46.3527 44.6751 46.2426 44.7121 46.2426C45.0161 45.4206 45.98 44.9435 45.9355 43.9454C45.7872 43.5637 45.6167 43.1894 45.5722 42.7857Z" fill="#E06565"/>
<path d="M62.6525 39.1967C62.8897 39.6003 63.1196 40.004 63.3568 40.4077C60.5395 41.2811 59.5015 40.437 60.7471 37.6334C61.533 35.8645 62.4968 34.1765 63.3791 32.4443C64.0834 32.782 64.6172 33.2003 64.2095 34.0884C64.0538 35.9012 62.1261 37.1856 62.6525 39.1967Z" fill="#E06565"/>
<path d="M50.1526 45.1931C52.0283 43.7545 51.9913 41.1784 53.6001 39.5784C54.1562 39.7105 54.4602 40.0775 54.564 40.6206C54.5714 42.7197 51.7614 44.0995 53.0144 46.5215C53.4667 46.9399 53.4222 47.3509 53.007 47.7619C50.2564 48.8775 50.2935 46.9325 50.1526 45.1931Z" fill="#E06565"/>
<path d="M53.0144 47.7692C53.0144 47.3582 53.0218 46.9398 53.0218 46.5288C55.4017 46.2426 56.5583 43.7251 58.8938 43.3655C60.6064 45.1637 56.714 46.0591 58.1598 47.8132C56.4323 49.3545 54.7419 46.426 53.0144 47.7692Z" fill="#E06565"/>
<path d="M64.2024 34.0957C63.9281 33.5453 63.6464 33.0022 63.3721 32.4517C63.5945 31.982 63.8169 31.5049 64.0393 31.0278C67.5462 31.8719 64.1283 33.0756 64.2024 34.0957Z" fill="#E06565"/>
<path d="M31.7579 15.0057C31.4316 14.7415 31.1128 14.4846 30.7866 14.2204C31.6392 12.4075 33.2481 11.6222 35.0794 11.1451C35.7689 10.9837 36.6363 10.4332 36.6289 11.8277C34.5307 12.18 33.7893 14.5653 31.7579 15.0057Z" fill="#E06565"/>
<path d="M36.6289 11.8277C36.1099 11.6002 35.5983 11.3726 35.0793 11.1451C35.9097 10.5433 36.9773 10.191 37.7262 10.8148C38.1117 11.1304 37.222 11.6809 36.6289 11.8277Z" fill="#E06565"/>
<path d="M44.8452 46.5875C44.8304 46.771 44.8452 46.9545 44.8823 47.138C43.9852 47.527 43.1103 48.8848 42.1094 47.6958C41.1456 46.5435 42.2132 45.3618 42.9028 44.5178C43.5404 43.7398 44.6673 43.3434 45.5718 42.7856C45.8239 42.9838 46.0686 43.182 46.3206 43.3801C46.5282 44.7673 44.4671 45.1269 44.8452 46.5875Z" fill="#E06565"/>
<path d="M54.5717 40.6279C54.2529 40.2829 53.9267 39.9306 53.6079 39.5857C53.8007 38.8077 54.379 38.015 55.0611 38.5361C55.9359 39.1893 55.0981 39.9893 54.5717 40.6279Z" fill="#E06565"/>
<path d="M31.7592 15.0057C27.3923 18.3672 23.107 21.8314 18.6437 25.0608C15.0701 27.6443 10.1991 28.3049 9.16853 26.3599C7.37432 22.9837 10.1694 20.6424 11.8672 18.2791C15.2703 13.5525 19.8003 9.95614 24.7826 6.96897C28.9048 4.49556 33.242 4.31207 37.861 6.41117C35.2957 7.57081 32.9529 8.60567 30.6323 9.69192C29.8612 10.0516 29.0679 10.4479 28.4229 10.991C27.0809 12.114 25.6055 13.4571 27.0661 15.2773C28.8974 17.5672 29.5646 14.6754 30.788 14.213C31.2847 14.2791 31.6109 14.536 31.7592 15.0057Z" fill="white"/>
<path d="M44.8442 46.5875C44.6144 46.2132 42.9759 46.771 44.0954 45.5233C44.7849 44.76 45.5782 44.0921 46.3196 43.3801C46.6384 43.7177 48.1657 43.0499 47.2093 44.459C46.5939 45.3691 45.9341 46.2058 44.8442 46.5875Z" fill="white"/>
</svg>
