<svg width="28" height="35" viewBox="0 0 28 35" fill="none" xmlns="http://www.w3.org/2000/svg">
<path d="M0.480011 25.208H4.32001V21.464H0.480011V15.512H4.32001V0.728027H15.264C19.68 0.728027 22.896 1.62403 24.912 3.41603C26.96 5.20803 27.984 7.67203 27.984 10.808C27.984 12.664 27.568 14.408 26.736 16.04C25.904 17.672 24.512 18.984 22.56 19.976C20.64 20.968 18.016 21.464 14.688 21.464H11.568V25.208H18.96V29.864H11.568V35H4.32001V29.864H0.480011V25.208ZM14.88 6.68003H11.568V15.512H13.968C16.016 15.512 17.632 15.16 18.816 14.456C20.032 13.752 20.64 12.616 20.64 11.048C20.64 8.13603 18.72 6.68003 14.88 6.68003Z" fill="#E06565"/>
</svg>
