<svg width="9" height="12" viewBox="0 0 9 12" fill="none" xmlns="http://www.w3.org/2000/svg">
<path d="M0.160004 8.78405H1.552V7.36005H0.160004V6.14405H1.552V0.57605H4.56C5.95734 0.57605 6.992 0.858717 7.664 1.42405C8.34667 1.98938 8.688 2.81072 8.688 3.88805C8.688 4.97605 8.31467 5.82938 7.568 6.44805C6.832 7.05605 5.75467 7.36005 4.336 7.36005H2.992V8.78405H5.632V9.82405H2.992V12.0001H1.552V9.82405H0.160004V8.78405ZM4.432 1.79205H2.992V6.14405H4.128C5.09867 6.14405 5.85067 5.98405 6.384 5.66405C6.928 5.34405 7.2 4.76805 7.2 3.93605C7.2 3.21072 6.976 2.67205 6.528 2.32005C6.08 1.96805 5.38134 1.79205 4.432 1.79205Z" fill="#E06565"/>
</svg>
