<svg width="17" height="22" viewBox="0 0 17 22" fill="none" xmlns="http://www.w3.org/2000/svg">
<path d="M0.300049 15.97H2.91005V13.3H0.300049V11.02H2.91005V0.579956H8.55005C11.17 0.579956 13.11 1.10996 14.37 2.16996C15.65 3.22996 16.2901 4.76996 16.2901 6.78996C16.2901 8.82996 15.59 10.43 14.19 11.59C12.81 12.73 10.79 13.3 8.13005 13.3H5.61005V15.97H10.5601V17.92H5.61005V22H2.91005V17.92H0.300049V15.97ZM8.31005 2.85996H5.61005V11.02H7.74005C9.56005 11.02 10.97 10.72 11.97 10.12C12.99 9.51996 13.5 8.43996 13.5 6.87996C13.5 5.51996 13.08 4.50996 12.24 3.84996C11.4 3.18996 10.09 2.85996 8.31005 2.85996Z" fill="#000000"/>
</svg>
