<svg width="14" height="18" viewBox="0 0 14 18" fill="none" xmlns="http://www.w3.org/2000/svg">
<path d="M0.23999 13.104H2.15999V11.232H0.23999V8.25601H2.15999V0.864014H7.63199C9.83999 0.864014 11.448 1.31201 12.456 2.20801C13.48 3.10401 13.992 4.33601 13.992 5.90401C13.992 6.83201 13.784 7.70401 13.368 8.52001C12.952 9.33601 12.256 9.99201 11.28 10.488C10.32 10.984 9.00799 11.232 7.34399 11.232H5.78399V13.104H9.47999V15.432H5.78399V18H2.15999V15.432H0.23999V13.104ZM7.43999 3.84001H5.78399V8.25601H6.98399C8.00799 8.25601 8.81599 8.08001 9.40799 7.72801C10.016 7.37601 10.32 6.80801 10.32 6.02401C10.32 4.56801 9.35999 3.84001 7.43999 3.84001Z" fill="black"/>
</svg>
