<svg width="26" height="29" viewBox="0 0 26 29" fill="none" xmlns="http://www.w3.org/2000/svg">
<path d="M16.3794 24.8516H10.2238V28.6123H4.41665V24.8516H0.487129V20.141H4.41665V18.6678H0.487129V13.9572H4.41665V0.387695H15.3729C17.4893 0.387695 19.3476 0.768934 20.9478 1.53141C22.548 2.29389 23.7868 3.38591 24.6644 4.80748C25.5548 6.21613 26 7.82508 26 9.63435C26 12.4258 25.0515 14.6292 23.1545 16.2446C21.2704 17.8601 18.6442 18.6678 15.2761 18.6678H10.2238V20.141H16.3794V24.8516ZM10.2238 13.9572H15.2374C18.4894 13.9572 20.1154 12.5292 20.1154 9.67312C20.1154 8.31617 19.7024 7.22415 18.8765 6.39705C18.0506 5.55704 16.9085 5.13057 15.4503 5.11764H10.2238V13.9572Z" fill="url(#paint0_linear)"/>
<defs>
<linearGradient id="paint0_linear" x1="6.97725" y1="3.85387" x2="20.5722" y2="27.4862" gradientUnits="userSpaceOnUse">
<stop stop-color="#E06565"/>
<stop offset="1" stop-color="#A52323"/>
</linearGradient>
</defs>
</svg>
